<?xml version="1.0" standalone="no"?>
<!DOCTYPE svg PUBLIC "-//W3C//DTD SVG 20010904//EN"
 "http://www.w3.org/TR/2001/REC-SVG-20010904/DTD/svg10.dtd">
<svg version="1.0" xmlns="http://www.w3.org/2000/svg"
 width="48.000000pt" height="48.000000pt" viewBox="0 0 48.000000 48.000000"
 preserveAspectRatio="xMidYMid meet">

<g transform="translate(0.000000,48.000000) scale(0.100000,-0.100000)"
fill="#000000" stroke="none">
<path d="M255 295 c-8 -13 -16 -13 -48 -3 -28 8 -40 9 -49 0 -7 -7 -17 -8 -30
-1 -21 12 -61 -6 -55 -24 5 -17 316 -22 331 -6 8 8 7 13 -2 16 -7 3 -20 12
-28 21 -15 15 -18 14 -31 -4 -11 -16 -15 -17 -23 -5 -7 12 -11 12 -24 2 -13
-11 -16 -11 -16 3 0 20 -12 21 -25 1z"/>
<path d="M70 221 c0 -21 3 -21 170 -21 163 0 170 1 170 20 0 24 -15 25 -73 5
-31 -10 -53 -12 -75 -5 -18 5 -68 12 -112 16 -77 6 -80 6 -80 -15z"/>
<path d="M73 174 c-10 -28 18 -34 167 -34 151 0 178 6 166 35 -6 16 -16 17
-86 11 -44 -3 -92 -11 -107 -17 -20 -7 -36 -6 -65 6 -49 19 -67 19 -75 -1z"/>
</g>
</svg>
