<?xml version="1.0" standalone="no"?>
<!DOCTYPE svg PUBLIC "-//W3C//DTD SVG 20010904//EN"
 "http://www.w3.org/TR/2001/REC-SVG-20010904/DTD/svg10.dtd">
<svg version="1.0" xmlns="http://www.w3.org/2000/svg"
 width="48.000000pt" height="48.000000pt" viewBox="0 0 48.000000 48.000000"
 preserveAspectRatio="xMidYMid meet">

<g transform="translate(0.000000,48.000000) scale(0.100000,-0.100000)"
fill="#000000" stroke="none">
<path d="M81 356 c2 -2 51 -6 109 -9 61 -3 92 -2 75 3 -30 8 -192 13 -184 6z"/>
<path d="M165 330 c3 -5 10 -10 16 -10 5 0 9 5 9 10 0 6 -7 10 -16 10 -8 0
-12 -4 -9 -10z"/>
<path d="M293 333 c-51 -10 -53 -59 -2 -51 18 2 24 9 23 26 0 17 3 21 15 16 9
-4 27 -8 41 -10 23 -4 22 -3 -5 11 -31 15 -35 15 -72 8z"/>
<path d="M115 316 c-16 -12 -17 -16 -6 -30 7 -9 21 -16 31 -16 10 0 24 7 31
16 11 14 10 18 -6 30 -10 8 -22 14 -25 14 -3 0 -15 -6 -25 -14z"/>
<path d="M215 291 c-7 -12 12 -24 25 -16 11 7 4 25 -10 25 -5 0 -11 -4 -15 -9z"/>
<path d="M189 244 c-18 -22 1 -49 36 -49 31 0 51 24 42 49 -8 21 -60 21 -78 0z"/>
<path d="M285 250 c-3 -5 -1 -10 4 -10 6 0 11 5 11 10 0 6 -2 10 -4 10 -3 0
-8 -4 -11 -10z"/>
<path d="M120 240 c0 -5 7 -10 15 -10 8 0 15 5 15 10 0 6 -7 10 -15 10 -8 0
-15 -4 -15 -10z"/>
<path d="M104 198 c3 -13 6 -31 6 -40 0 -11 8 -18 18 -18 21 0 42 18 42 36 0
19 -29 44 -52 44 -16 0 -19 -5 -14 -22z"/>
<path d="M173 140 c1 -23 8 -25 25 -8 17 17 15 28 -7 28 -14 0 -19 -6 -18 -20z"/>
</g>
</svg>
